<?xml version="1.0" encoding="UTF-8"?>
<svg width="26px" height="20px" viewBox="0 0 26 20" version="1.1" xmlns="http://www.w3.org/2000/svg" xmlns:xlink="http://www.w3.org/1999/xlink">
    <!-- Generator: Sketch 49.3 (51167) - http://www.bohemiancoding.com/sketch -->
    <title>Combined Shape</title>
    <desc>Created with Sketch.</desc>
    <defs></defs>
    <g id="Symbols" stroke="none" stroke-width="1" fill="none" fill-rule="evenodd">
        <g id="Arrow-/-Arrow-hover" transform="translate(-19.000000, -22.000000)" fill="#7F0C87" fill-rule="nonzero">
            <g id="Group-3-Copy-5">
                <path d="M22.6667517,33 L29.6548044,39.9880527 C30.1150652,40.4483135 30.1150652,41.1945436 29.6548044,41.6548044 C29.1945436,42.1150652 28.4483135,42.1150652 27.9880527,41.6548044 L19.3451956,33.0119473 C19.0903443,32.757096 18.9766069,32.4145678 19.0039833,32.081458 C19.0013448,32.0545912 19,32.0274245 19,32 C19,31.9725755 19.0013448,31.9454088 19.0039833,31.918542 C18.9766069,31.5854322 19.0903443,31.242904 19.3451956,30.9880527 L27.9880527,22.3451956 C28.4483135,21.8849348 29.1945436,21.8849348 29.6548044,22.3451956 C30.1150652,22.8054564 30.1150652,23.5516865 29.6548044,24.0119473 L22.6667517,31 L43.7818097,31 C44.4545976,31 45,31.4477153 45,32 C45,32.5522847 44.4545976,33 43.7818097,33 L22.6667517,33 Z" id="Combined-Shape" transform="translate(32.000000, 32.000000) scale(-1, 1) translate(-32.000000, -32.000000) "></path>
            </g>
        </g>
    </g>
</svg>