<?xml version="1.0" encoding="UTF-8"?>
<svg width="26px" height="20px" viewBox="0 0 26 20" version="1.1" xmlns="http://www.w3.org/2000/svg" xmlns:xlink="http://www.w3.org/1999/xlink">
    <!-- Generator: Sketch 49.3 (51167) - http://www.bohemiancoding.com/sketch -->
    <title>Combined Shape</title>
    <desc>Created with Sketch.</desc>
    <defs></defs>
    <g id="Symbols" stroke="none" stroke-width="1" fill="none" fill-rule="evenodd">
        <g id="Arrow-/-Arrow-normal" transform="translate(-45.000000, -22.000000)" fill="#979797" fill-rule="nonzero">
            <g id="Group-3">
                <path d="M48.6667517,33 L55.6548044,39.9880527 C56.1150652,40.4483135 56.1150652,41.1945436 55.6548044,41.6548044 C55.1945436,42.1150652 54.4483135,42.1150652 53.9880527,41.6548044 L45.3451956,33.0119473 C45.0903443,32.757096 44.9766069,32.4145678 45.0039833,32.081458 C45.0013448,32.0545912 45,32.0274245 45,32 C45,31.9725755 45.0013448,31.9454088 45.0039833,31.918542 C44.9766069,31.5854322 45.0903443,31.242904 45.3451956,30.9880527 L53.9880527,22.3451956 C54.4483135,21.8849348 55.1945436,21.8849348 55.6548044,22.3451956 C56.1150652,22.8054564 56.1150652,23.5516865 55.6548044,24.0119473 L48.6667517,31 L69.7818097,31 C70.4545976,31 71,31.4477153 71,32 C71,32.5522847 70.4545976,33 69.7818097,33 L48.6667517,33 Z" id="Combined-Shape" transform="translate(58.000000, 32.000000) scale(-1, 1) translate(-58.000000, -32.000000) "></path>
            </g>
        </g>
    </g>
</svg>