<?xml version="1.0" encoding="UTF-8"?>
<svg width="29px" height="27px" viewBox="0 0 29 27" version="1.1" xmlns="http://www.w3.org/2000/svg" xmlns:xlink="http://www.w3.org/1999/xlink">
    <!-- Generator: Sketch 49.3 (51167) - http://www.bohemiancoding.com/sketch -->
    <title>shopping-basket</title>
    <desc>Created with Sketch.</desc>
    <defs>
        <linearGradient x1="100%" y1="50%" x2="0%" y2="50%" id="linearGradient-1">
            <stop stop-color="#B61CBC" offset="0%"></stop>
            <stop stop-color="#7F0C87" offset="100%"></stop>
        </linearGradient>
    </defs>
    <g id="Symbols" stroke="none" stroke-width="1" fill="none" fill-rule="evenodd">
        <g id="Header-Copy" transform="translate(-1288.000000, -87.000000)" fill="url(#linearGradient-1)" fill-rule="nonzero">
            <g id="shopping-basket" transform="translate(1288.000000, 87.000000)">
                <path d="M26.7934512,8.39855556 L25.2901523,8.39855556 C25.2786543,8.386 25.2678926,8.37305556 25.2556016,8.36105556 L17.0599863,0.322388889 C16.6907461,-0.0398333333 16.0919414,-0.0398333333 15.7226445,0.322388889 C15.3533477,0.684611111 15.3533477,1.27188889 15.7226445,1.63411111 L22.6191504,8.3985 L6.38079297,8.3985 L13.2773555,1.63411111 C13.6466523,1.27188889 13.6466523,0.684611111 13.2773555,0.322388889 C12.9081152,-0.0398333333 12.3093105,-0.0398333333 11.9400137,0.322388889 L3.7443418,8.36105556 C3.73205078,8.37311111 3.72128906,8.38605556 3.70979102,8.39855556 L2.20654883,8.39855556 C0.989851562,8.39855556 0,9.36944444 0,10.5627778 L0,11.7995 C0,12.9362222 0.898037109,13.871 2.03475781,13.9572778 L3.84725781,24.6241111 C4.07625586,25.9713889 5.25307812,26.9492778 6.64564453,26.9492778 L22.6313281,26.9492778 C24.0340332,26.9492778 25.2413848,25.9221667 25.4397969,24.5601667 L26.9842734,13.9557222 C28.1119883,13.8605 28.9999434,12.9297778 28.9999434,11.7995 L28.9999434,10.5627778 C29,9.36944444 28.0101484,8.39855556 26.7934512,8.39855556 Z M27.1087129,11.7995 C27.1087129,11.97 26.9672812,12.1086667 26.7935078,12.1086667 C26.503168,12.1086667 17.7512852,12.1086667 17.3370156,12.1086667 C16.8147891,12.1086667 16.3913437,12.5239444 16.3913437,13.0362222 C16.3913437,13.5484444 16.8147324,13.9637778 17.3370156,13.9637778 L25.0727656,13.9637778 L23.5675977,24.2978889 C23.5014414,24.7518889 23.0990098,25.0942222 22.6313848,25.0942222 L6.64564453,25.0942222 C6.18147461,25.0942222 5.78918164,24.7682778 5.71283008,24.3191667 L3.95328906,13.9637778 L11.663041,13.9637778 C12.1852676,13.9637778 12.6087129,13.5485 12.6087129,13.0362222 C12.6087129,12.524 12.1853242,12.1086667 11.663041,12.1086667 C11.2481484,12.1086667 2.49564258,12.1086667 2.20654883,12.1086667 C2.03271875,12.1086667 1.89134375,11.9699444 1.89134375,11.7995 L1.89134375,10.5627778 C1.89134375,10.3922778 2.03277539,10.2536111 2.20654883,10.2536111 L26.7935078,10.2536111 C26.9673379,10.2536111 27.1087129,10.3923333 27.1087129,10.5627778 L27.1087129,11.7995 Z M8.82608203,15.8188333 C8.30385547,15.8188333 7.88041016,16.2341111 7.88041016,16.7463889 L7.88041016,22.3116111 C7.88041016,22.8238333 8.30379883,23.2391667 8.82608203,23.2391667 C9.34836523,23.2391667 9.77175391,22.8238889 9.77175391,22.3116111 L9.77175391,16.7463333 C9.77175391,16.2341111 9.34836523,15.8188333 8.82608203,15.8188333 Z M14.5,15.8188333 C13.9777734,15.8188333 13.5543281,16.2341111 13.5543281,16.7463889 L13.5543281,22.3116111 C13.5543281,22.8238333 13.9777168,23.2391667 14.5,23.2391667 C15.0222266,23.2391667 15.4456719,22.8238889 15.4456719,22.3116111 L15.4456719,16.7463333 C15.4456719,16.2341111 15.0222266,15.8188333 14.5,15.8188333 Z M20.173918,15.8188333 C19.6516914,15.8188333 19.2282461,16.2341111 19.2282461,16.7463889 L19.2282461,22.3116111 C19.2282461,22.8238333 19.6516348,23.2391667 20.173918,23.2391667 C20.6961445,23.2391667 21.1195898,22.8238889 21.1195898,22.3116111 L21.1195898,16.7463333 C21.1195898,16.2341111 20.6961445,15.8188333 20.173918,15.8188333 Z" id="Combined-Shape"></path>
            </g>
        </g>
    </g>
</svg>