<?xml version="1.0" encoding="UTF-8"?>
<svg width="8px" height="8px" viewBox="0 0 8 8" version="1.1" xmlns="http://www.w3.org/2000/svg" xmlns:xlink="http://www.w3.org/1999/xlink">
    <!-- Generator: Sketch 50.2 (55047) - http://www.bohemiancoding.com/sketch -->
    <title>Group 3</title>
    <desc>Created with Sketch.</desc>
    <defs></defs>
    <g id="Symbols" stroke="none" stroke-width="1" fill="none" fill-rule="evenodd">
        <g id="Tag" transform="translate(-92.000000, -14.000000)" fill="#7F0C87" fill-rule="nonzero">
            <g id="Group-3" transform="translate(92.000000, 14.000000)">
                <path d="M2.97148105,4 L0.21301325,1.2415322 C-0.0710044167,0.957514538 -0.0710044167,0.497030917 0.21301325,0.21301325 C0.497030917,-0.0710044167 0.957514538,-0.0710044167 1.2415322,0.21301325 L4,2.97148105 L6.7584678,0.21301325 C7.04248546,-0.0710044167 7.50296908,-0.0710044167 7.78698675,0.21301325 C8.07100442,0.497030917 8.07100442,0.957514538 7.78698675,1.2415322 L5.02851895,4 L7.78698675,6.7584678 C8.07100442,7.04248546 8.07100442,7.50296908 7.78698675,7.78698675 C7.50296908,8.07100442 7.04248546,8.07100442 6.7584678,7.78698675 L4,5.02851895 L1.2415322,7.78698675 C0.957514538,8.07100442 0.497030917,8.07100442 0.21301325,7.78698675 C-0.0710044167,7.50296908 -0.0710044167,7.04248546 0.21301325,6.7584678 L2.97148105,4 Z" id="Combined-Shape"></path>
            </g>
        </g>
    </g>
</svg>