<?xml version="1.0" encoding="UTF-8"?>
<svg width="60px" height="42px" viewBox="0 0 60 42" version="1.1" xmlns="http://www.w3.org/2000/svg" xmlns:xlink="http://www.w3.org/1999/xlink">
    <!-- Generator: Sketch 49.3 (51167) - http://www.bohemiancoding.com/sketch -->
    <title>credit-card</title>
    <desc>Created with Sketch.</desc>
    <defs>
        <linearGradient x1="100%" y1="50%" x2="0%" y2="50%" id="linearGradient-1">
            <stop stop-color="#B61CBC" offset="0%"></stop>
            <stop stop-color="#7F0C87" offset="100%"></stop>
        </linearGradient>
    </defs>
    <g id="Page-1" stroke="none" stroke-width="1" fill="none" fill-rule="evenodd">
        <g id="Главная" transform="translate(-1130.000000, -699.000000)" fill="url(#linearGradient-1)" fill-rule="nonzero">
            <g id="credit-card" transform="translate(1130.000000, 699.000000)">
                <path d="M43.1514844,8.43488333 L3.69703125,8.43488333 C1.6584375,8.43488333 0,10.08595 0,12.1154833 L0,38.30155 C0,40.3310833 1.6584375,41.98215 3.69703125,41.98215 L43.1513672,41.98215 C45.1899609,41.98215 46.8485156,40.3310833 46.8485156,38.30155 L46.8485156,12.1154833 C46.8485156,10.08595 45.1900781,8.43488333 43.1514844,8.43488333 Z M45.0907031,38.30155 C45.0907031,39.3660167 44.2207031,40.23215 43.1513672,40.23215 L3.69703125,40.23215 C2.62769531,40.23215 1.7578125,39.3660167 1.7578125,38.30155 L1.7578125,12.1154833 C1.7578125,11.0509 2.62769531,10.1848833 3.69703125,10.1848833 L43.1513672,10.1848833 C44.2207031,10.1848833 45.0907031,11.0509 45.0907031,12.1154833 L45.0907031,38.30155 Z" id="Shape"></path>
                <path d="M12.1515234,18.7222 L8.39402344,18.7222 C6.87339844,18.7222 5.63636719,19.95385 5.63636719,21.4676 L5.63636719,23.338 C5.63636719,24.8518667 6.87339844,26.0834 8.39402344,26.0834 L12.1515234,26.0834 C13.6721484,26.0834 14.9091797,24.85175 14.9091797,23.338 L14.9091797,21.4676 C14.9091797,19.9537333 13.6720312,18.7222 12.1515234,18.7222 Z M9.39386719,24.3335167 L8.39402344,24.3335167 C7.84265625,24.3335167 7.39417969,23.8870333 7.39417969,23.3381167 L7.39417969,21.4676 C7.39417969,20.9186833 7.84277344,20.4722 8.39402344,20.4722 L9.39386719,20.4722 L9.39386719,24.3335167 Z M13.1514844,23.338 C13.1514844,23.8869167 12.7028906,24.3334 12.1516406,24.3334 L11.1517969,24.3334 L11.1517969,20.4720833 L12.1516406,20.4720833 C12.7028906,20.4722 13.1514844,20.9186833 13.1514844,21.4676 L13.1514844,23.338 Z" id="Shape"></path>
                <path d="M12.1516406,29.0095167 L6.51527344,29.0095167 C6.02988281,29.0095167 5.63636719,29.4011667 5.63636719,29.8845167 C5.63636719,30.3678667 6.02988281,30.7595167 6.51527344,30.7595167 L12.1516406,30.7595167 C12.6370312,30.7595167 13.0305469,30.3678667 13.0305469,29.8845167 C13.0305469,29.4011667 12.6370312,29.0095167 12.1516406,29.0095167 Z" id="Shape"></path>
                <path d="M21.5455078,29.0095167 L15.9091406,29.0095167 C15.42375,29.0095167 15.0302344,29.4011667 15.0302344,29.8845167 C15.0302344,30.3678667 15.42375,30.7595167 15.9091406,30.7595167 L21.5455078,30.7595167 C22.0308984,30.7595167 22.4244141,30.3678667 22.4244141,29.8845167 C22.4244141,29.4011667 22.0308984,29.0095167 21.5455078,29.0095167 Z" id="Shape"></path>
                <path d="M25.3030078,33.6855167 L6.51527344,33.6855167 C6.02988281,33.6855167 5.63636719,34.0771667 5.63636719,34.5605167 C5.63636719,35.0438667 6.02988281,35.4355167 6.51527344,35.4355167 L25.303125,35.4355167 C25.7885156,35.4355167 26.1820312,35.0438667 26.1820312,34.5605167 C26.1820312,34.0771667 25.7885156,33.6855167 25.3030078,33.6855167 Z" id="Shape"></path>
                <path d="M30.939375,29.0095167 L25.3030078,29.0095167 C24.8176172,29.0095167 24.4241016,29.4011667 24.4241016,29.8845167 C24.4241016,30.3678667 24.8176172,30.7595167 25.3030078,30.7595167 L30.939375,30.7595167 C31.4247656,30.7595167 31.8182812,30.3678667 31.8182812,29.8845167 C31.8182812,29.4011667 31.4247656,29.0095167 30.939375,29.0095167 Z" id="Shape"></path>
                <path d="M40.3332422,29.0095167 L34.696875,29.0095167 C34.2114844,29.0095167 33.8179687,29.4011667 33.8179687,29.8845167 C33.8179687,30.3678667 34.2114844,30.7595167 34.696875,30.7595167 L40.3332422,30.7595167 C40.8186328,30.7595167 41.2121484,30.3678667 41.2121484,29.8845167 C41.2121484,29.4011667 40.8186328,29.0095167 40.3332422,29.0095167 Z" id="Shape"></path>
                <path d="M36.5757422,14.0462 C35.0309766,14.0462 33.6611719,14.8029 32.8182422,15.9626833 C31.9751953,14.8027833 30.6053906,14.0462 29.0607422,14.0462 C26.5041797,14.0462 24.4243359,16.1168 24.4243359,18.662 C24.4243359,21.2072 26.5042969,23.2778 29.0607422,23.2778 C30.6055078,23.2778 31.9753125,22.5211 32.8182422,21.3613167 C33.6612891,22.5212167 35.0310937,23.2778 36.5757422,23.2778 C39.1323047,23.2778 41.2121484,21.2072 41.2121484,18.662 C41.2121484,16.1168 39.1323047,14.0462 36.5757422,14.0462 Z M29.060625,21.5278 C27.4733203,21.5278 26.1820312,20.2421333 26.1820312,18.662 C26.1820312,17.0818667 27.4734375,15.7962 29.060625,15.7962 C30.6478125,15.7962 31.9392187,17.0818667 31.9392187,18.662 C31.9392187,20.2421333 30.6479297,21.5278 29.060625,21.5278 Z M36.5757422,21.5278 C34.9884375,21.5278 33.6971484,20.2421333 33.6971484,18.662 C33.6971484,17.0818667 34.9885547,15.7962 36.5757422,15.7962 C38.1629297,15.7962 39.4543359,17.0818667 39.4543359,18.662 C39.4543359,20.2421333 38.1630469,21.5278 36.5757422,21.5278 Z" id="Shape"></path>
                <path d="M56.3029687,0.01785 L16.8485156,0.01785 C14.8099219,0.01785 13.1513672,1.66891667 13.1513672,3.69845 L13.1513672,5.56885 C13.1513672,6.0522 13.5448828,6.44385 14.0302734,6.44385 L58.2421875,6.44385 L58.2421875,10.3052833 L49.7272266,10.3052833 C49.2418359,10.3052833 48.8483203,10.6969333 48.8483203,11.1802833 C48.8483203,11.6636333 49.2418359,12.0552833 49.7272266,12.0552833 L58.2421875,12.0552833 L58.2421875,29.8845167 C58.2421875,30.9491 57.3723047,31.8151167 56.3029687,31.8151167 L49.7269922,31.8151167 C49.2416016,31.8151167 48.8480859,32.2067667 48.8480859,32.6901167 C48.8480859,33.1734667 49.2416016,33.5651167 49.7269922,33.5651167 L56.3029687,33.5651167 C58.3415625,33.5651167 60,31.91405 60,29.8845167 L60,3.69845 C60,1.66903333 58.3415625,0.01785 56.3029687,0.01785 Z M58.2421875,4.69385 L14.9092969,4.69385 L14.9092969,3.69845 C14.9092969,2.63398333 15.7792969,1.76785 16.8486328,1.76785 L56.3029687,1.76785 C57.3723047,1.76785 58.2421875,2.63398333 58.2421875,3.69845 L58.2421875,4.69385 Z" id="Shape"></path>
            </g>
        </g>
    </g>
</svg>