<?xml version="1.0" encoding="UTF-8"?>
<svg width="60px" height="35px" viewBox="0 0 60 35" version="1.1" xmlns="http://www.w3.org/2000/svg" xmlns:xlink="http://www.w3.org/1999/xlink">
    <!-- Generator: Sketch 49.3 (51167) - http://www.bohemiancoding.com/sketch -->
    <title>delivery-truck</title>
    <desc>Created with Sketch.</desc>
    <defs>
        <linearGradient x1="100%" y1="50%" x2="0%" y2="50%" id="linearGradient-1">
            <stop stop-color="#B61CBC" offset="0%"></stop>
            <stop stop-color="#7F0C87" offset="100%"></stop>
        </linearGradient>
    </defs>
    <g id="Page-1" stroke="none" stroke-width="1" fill="none" fill-rule="evenodd">
        <g id="Главная" transform="translate(-838.000000, -703.000000)" fill="url(#linearGradient-1)" fill-rule="nonzero">
            <g id="delivery-truck" transform="translate(838.000000, 703.000000)">
                <path d="M13.0908984,27.7113651 C12.0882422,27.7113651 11.2726172,28.5126809 11.2726172,29.4977467 C11.2726172,30.4828125 12.0882422,31.2841283 13.0908984,31.2841283 C14.0935547,31.2841283 14.9091797,30.4828125 14.9091797,29.4977467 C14.9091797,28.5126809 14.0935547,27.7113651 13.0908984,27.7113651 Z" id="Shape"></path>
                <path d="M50.6666016,27.7113651 C49.6639453,27.7113651 48.8483203,28.5126809 48.8483203,29.4977467 C48.8483203,30.4828125 49.6639453,31.2841283 50.6666016,31.2841283 C51.6692578,31.2841283 52.4848828,30.4828125 52.4848828,29.4977467 C52.4848828,28.5126809 51.6692578,27.7113651 50.6666016,27.7113651 Z" id="Shape"></path>
                <path d="M58.1143359,16.2600329 L51.3474609,14.0439803 L48.1846875,5.49914474 C47.7898828,4.43245066 46.7484375,3.71575658 45.5930859,3.71575658 L37.4546484,3.71575658 L37.4546484,1.81044408 C37.4546484,0.825378289 36.6390234,0.0240625 35.6363672,0.0240625 L1.81828125,0.0240625 C0.815625,0.0240625 0,0.825493421 0,1.81055921 L0,26.7291776 C0,27.7142434 0.815625,28.5155592 1.81828125,28.5155592 L7.60664062,28.5155592 C7.54757812,28.8344737 7.51511719,29.1624836 7.51511719,29.4978618 C7.51511719,32.5184539 10.0164844,34.9759375 13.0910156,34.9759375 C16.1655469,34.9759375 18.6669141,32.5184539 18.6669141,29.4978618 C18.6669141,29.1623684 18.6344531,28.8344737 18.5753906,28.5155592 L45.1824609,28.5155592 C45.1233984,28.8344737 45.0909375,29.1624836 45.0909375,29.4978618 C45.0909375,32.5184539 47.5923047,34.9759375 50.6668359,34.9759375 C53.7413672,34.9759375 56.2427344,32.5184539 56.2427344,29.4978618 C56.2427344,29.0711842 56.1911719,28.65625 56.0968359,28.2574342 L57.9567188,27.3438651 C59.2169531,26.7245724 60,25.4796546 60,24.0949671 L60,18.8303454 C60,17.6624507 59.2422656,16.6294901 58.1143359,16.2600329 Z M1.7578125,1.81055921 C1.7578125,1.77774671 1.78488281,1.75103618 1.81828125,1.75103618 L35.6363672,1.75103618 C35.6697656,1.75103618 35.6968359,1.77763158 35.6968359,1.81044408 L35.6968359,20.3280921 L1.7578125,20.3280921 L1.7578125,1.81055921 Z M13.0908984,33.2489638 C10.985625,33.2489638 9.2728125,31.5662007 9.2728125,29.4978618 C9.2728125,27.429523 10.985625,25.7467599 13.0908984,25.7467599 C15.1961719,25.7467599 16.9089844,27.429523 16.9089844,29.4978618 C16.9091016,31.5662007 15.1962891,33.2489638 13.0908984,33.2489638 Z M35.6968359,26.7884704 L17.9341406,26.7884704 C16.9728516,25.1364474 15.1626562,24.0197862 13.0908984,24.0197862 C11.0191406,24.0197862 9.2090625,25.1364474 8.24777344,26.7884704 L1.81828125,26.7884704 C1.78488281,26.7884704 1.7578125,26.761875 1.7578125,26.7290625 L1.7578125,22.0550658 L35.6968359,22.0550658 L35.6968359,26.7884704 Z M47.6599219,9.13442434 L49.411875,13.8678289 L47.5246875,13.8678289 L45.7727344,9.13442434 L47.6599219,9.13442434 Z M37.4546484,5.44273026 L45.5930859,5.44273026 C46.0120312,5.44273026 46.3896094,5.70258224 46.5328125,6.08930921 L47.0206641,7.40733553 L37.4546484,7.40733553 L37.4546484,5.44273026 Z M37.4546484,9.13442434 L43.9023047,9.13442434 L45.6542578,13.8678289 L37.4546484,13.8678289 L37.4546484,9.13442434 Z M50.6666016,33.2489638 C48.5613281,33.2489638 46.8485156,31.5662007 46.8485156,29.4978618 C46.8485156,27.429523 48.5613281,25.7467599 50.6666016,25.7467599 C52.771875,25.7467599 54.4846875,27.429523 54.4846875,29.4978618 C54.4846875,31.5662007 52.771875,33.2489638 50.6666016,33.2489638 Z M58.2421875,20.327977 L57.2423438,20.327977 C56.7569531,20.327977 56.3634375,20.7145888 56.3634375,21.1914638 C56.3634375,21.6683388 56.7569531,22.0549507 57.2423438,22.0549507 L58.2421875,22.0549507 L58.2421875,24.094852 C58.2421875,24.8213322 57.8314453,25.4742434 57.1702734,25.7991447 L55.4303906,26.6537664 C54.4507031,25.0756579 52.681875,24.0197862 50.6666016,24.0197862 C48.5948438,24.0197862 46.7847656,25.1364474 45.8234766,26.7884704 L37.4546484,26.7884704 L37.4546484,22.0550658 L53.4848438,22.0550658 C53.9702344,22.0550658 54.36375,21.6684539 54.36375,21.1915789 C54.36375,20.7147039 53.9702344,20.3280921 53.4848438,20.3280921 L37.4546484,20.3280921 L37.4546484,15.5946875 L50.5239844,15.5946875 L57.5585156,17.8983553 C57.9675,18.0322533 58.2421875,18.4067763 58.2421875,18.8302303 L58.2421875,20.327977 Z" id="Shape"></path>
                <path d="M29.4966797,10.2898849 L22.9209375,6.59830592 C22.4996484,6.36171053 21.9626953,6.505625 21.7217578,6.91963816 C21.4809375,7.33376645 21.6273047,7.86118421 22.0488281,8.09777961 L25.7510156,10.17625 L8.39402344,10.17625 C7.90863281,10.17625 7.51511719,10.5628618 7.51511719,11.0397368 C7.51511719,11.5166118 7.90863281,11.9031086 8.39402344,11.9031086 L25.7510156,11.9031086 L22.0488281,13.9815789 C21.6274219,14.2181743 21.4809375,14.7455921 21.7217578,15.1597204 C21.8839453,15.4385691 22.1805469,15.5949178 22.4857031,15.5949178 C22.6335938,15.5949178 22.7834766,15.5581908 22.9209375,15.4809375 L29.4966797,11.7893586 C29.7704297,11.6356579 29.9395313,11.3495559 29.9395313,11.0396217 C29.9395313,10.7296875 29.7705469,10.4437007 29.4966797,10.2898849 Z" id="Shape"></path>
            </g>
        </g>
    </g>
</svg>