<?xml version="1.0" encoding="UTF-8"?>
<svg width="58px" height="60px" viewBox="0 0 58 60" version="1.1" xmlns="http://www.w3.org/2000/svg" xmlns:xlink="http://www.w3.org/1999/xlink">
    <!-- Generator: Sketch 49.3 (51167) - http://www.bohemiancoding.com/sketch -->
    <title>box (1)</title>
    <desc>Created with Sketch.</desc>
    <defs>
        <linearGradient x1="100%" y1="50%" x2="0%" y2="50%" id="linearGradient-1">
            <stop stop-color="#B61CBC" offset="0%"></stop>
            <stop stop-color="#7F0C87" offset="100%"></stop>
        </linearGradient>
    </defs>
    <g id="Page-1" stroke="none" stroke-width="1" fill="none" fill-rule="evenodd">
        <g id="Главная" transform="translate(-253.000000, -690.000000)" fill="url(#linearGradient-1)" fill-rule="nonzero">
            <g id="box-(1)" transform="translate(253.000000, 690.000000)">
                <path d="M45.3167097,10.7446875 L23.2884032,0.087421875 C23.0473992,-0.0291796875 22.766754,-0.0291796875 22.5258669,0.087421875 L0.497560484,10.7446875 C0.19446371,10.8912891 0.00187096774,11.1987891 0.00187096774,11.5361719 L0.00187096774,37.4179687 C0.00187096774,37.7552344 0.19446371,38.0628516 0.497560484,38.2094531 L22.52575,48.8666016 C22.6461935,48.9249609 22.7766935,48.9540234 22.9070766,48.9540234 C23.0374597,48.9540234 23.1678427,48.9248437 23.2884032,48.8666016 L27.7469194,46.7096484 C28.1830887,46.4985937 28.3659758,45.973125 28.1554919,45.5360156 C27.9448911,45.0989062 27.4205524,44.9158594 26.9843831,45.1265625 L23.7842097,46.6748437 L23.7842097,22.7450391 L28.1254395,20.6446875 C28.5616089,20.4336328 28.744496,19.9082813 28.5338952,19.4710547 C28.3232944,19.0340625 27.7989556,18.8508984 27.3627863,19.0617188 L22.9070766,21.2175 L2.89614113,11.5361719 L9.57350806,8.30566406 L30.765375,18.5582813 L30.765375,27.0079687 C30.765375,27.3104297 30.9205484,27.5915625 31.1761694,27.7524609 C31.318129,27.8417578 31.4800847,27.886875 31.6425081,27.886875 C31.7725403,27.886875 31.9029234,27.8579297 32.0237177,27.7994531 L37.3408911,25.2269531 C37.6439879,25.0803516 37.8365806,24.7728516 37.8365806,24.4354687 L37.8365806,15.9465234 L44.0583669,12.9364453 L44.0583669,29.0607422 C44.0583669,29.5461328 44.4510363,29.9396484 44.9353831,29.9396484 C45.4197298,29.9396484 45.8123992,29.5461328 45.8123992,29.0607422 L45.8123992,11.5361719 C45.8123992,11.1989062 45.6198065,10.8912891 45.3167097,10.7446875 Z M22.0300605,22.7450391 L22.0300605,46.6749609 L1.75590323,36.8663672 L1.75590323,12.9364453 L22.0300605,22.7450391 Z M31.6016976,17.0110547 L11.6282984,7.34777344 L15.4088226,5.51144531 L35.3899395,15.1783594 L31.6016976,17.0110547 Z M36.0825484,23.88375 L32.5194073,25.6075781 L32.5194073,18.5189062 L36.0825484,16.7950781 L36.0825484,23.88375 Z M37.4014637,14.205 C37.3813508,14.1931641 37.3620565,14.1803906 37.3408911,14.1701953 L17.3962581,4.52097656 L22.9070766,1.85484375 L42.9180121,11.5360547 L37.4014637,14.205 Z" id="Shape"></path>
                <path d="M8.28639919,33.9769922 L5.05371774,32.4130078 C4.61743145,32.2017187 4.09320968,32.3852344 3.88260887,32.8223437 C3.67200806,33.2594531 3.85489516,33.7849219 4.29106452,33.9959766 L7.52374597,35.5599609 C7.64664516,35.6194922 7.77656048,35.6476172 7.90437097,35.6476172 C8.2303871,35.6476172 8.54354032,35.4645703 8.6947379,35.150625 C8.90545565,34.7133984 8.72256855,34.1880469 8.28639919,33.9769922 Z" id="Shape"></path>
                <path d="M11.2614718,31.4491406 L5.05816129,28.4479687 C4.62175806,28.2366797 4.09753629,28.4201953 3.88705242,28.8573047 C3.67645161,29.2944141 3.85933871,29.8198828 4.29550806,30.0309375 L10.4988185,33.0319922 C10.6217177,33.0915234 10.7516331,33.1196484 10.8794435,33.1196484 C11.2054597,33.1196484 11.5186129,32.9366016 11.6698105,32.6226562 C11.8805282,32.1856641 11.6976411,31.6601953 11.2614718,31.4491406 Z" id="Shape"></path>
                <path d="M43.9979113,31.9393359 C36.2781815,31.9393359 29.9976935,38.2333594 29.9976935,45.9697266 C29.9976935,53.7060937 36.2781815,60 43.9979113,60 C51.7176411,60 57.998129,53.7060937 57.998129,45.9696094 C57.998129,38.233125 51.7177581,31.9393359 43.9979113,31.9393359 Z M43.9979113,58.2421875 C37.2453548,58.2421875 31.7517258,52.7368359 31.7517258,45.9696094 C31.7517258,39.2023828 37.2453548,33.6970312 43.9979113,33.6970312 C50.7504677,33.6970312 56.2440968,39.2025 56.2440968,45.9696094 C56.2440968,52.7367187 50.7505847,58.2421875 43.9979113,58.2421875 Z" id="Shape"></path>
                <path d="M53.3716935,45.0908203 L46.6055726,45.0908203 C46.3314758,44.27625 45.687746,43.6311328 44.8749274,43.3564453 L44.8749274,36.5757422 C44.8749274,36.0903516 44.4822581,35.6968359 43.9979113,35.6968359 C43.5135645,35.6968359 43.1208952,36.0903516 43.1208952,36.5757422 L43.1208952,43.3564453 C42.0324597,43.7242969 41.2460685,44.7563672 41.2460685,45.9697266 C41.2460685,47.4903516 42.4805565,48.7273828 43.9979113,48.7273828 C45.2085444,48.7273828 46.2383952,47.9394141 46.6055726,46.8486328 L53.3716935,46.8486328 C53.8560403,46.8486328 54.2487097,46.4551172 54.2487097,45.9697266 C54.2487097,45.4843359 53.8560403,45.0908203 53.3716935,45.0908203 Z M43.9979113,46.9695703 C43.4477298,46.9695703 43.0001008,46.5209766 43.0001008,45.9697266 C43.0001008,45.4183594 43.4477298,44.9697656 43.9979113,44.9697656 C44.5480927,44.9697656 44.9956048,45.4183594 44.9956048,45.9697266 C44.9957218,46.5209766 44.5480927,46.9695703 43.9979113,46.9695703 Z" id="Shape"></path>
            </g>
        </g>
    </g>
</svg>