<?xml version="1.0" encoding="UTF-8"?>
<svg width="19px" height="18px" viewBox="0 0 19 18" version="1.1" xmlns="http://www.w3.org/2000/svg" xmlns:xlink="http://www.w3.org/1999/xlink">
    <!-- Generator: Sketch 50.2 (55047) - http://www.bohemiancoding.com/sketch -->
    <title>filter</title>
    <desc>Created with Sketch.</desc>
    <defs></defs>
    <g id="Page-1" stroke="none" stroke-width="1" fill="none" fill-rule="evenodd">
        <g id="Каталог-640" transform="translate(-222.000000, -369.000000)" fill="#7F0C87" fill-rule="nonzero">
            <g id="Category-/-Cell-1-Copy-9" transform="translate(205.000000, 358.000000)">
                <g id="filter" transform="translate(17.000000, 11.000000)">
                    <path d="M18.9037742,0.391755459 C18.8089274,0.185344978 18.6064395,0.0536855895 18.3840323,0.0536855895 L0.574596774,0.0536855895 C0.352189516,0.0536855895 0.149778226,0.185344978 0.0548548387,0.391755459 C-0.0399919355,0.598165939 -0.010266129,0.842148472 0.131237903,1.01821834 L6.97744355,9.53748472 L6.97744355,17.3930306 C6.97744355,17.5970044 7.08018145,17.7864367 7.24903629,17.8939651 C7.34158468,17.9528384 7.44662097,17.9825502 7.55204032,17.9825502 C7.63914919,17.9825502 7.72656452,17.9621921 7.80716129,17.9212402 L11.6537419,15.965214 C11.8491815,15.8658603 11.9728347,15.6615721 11.9731411,15.4377904 L11.9806492,9.53772052 L18.8272379,1.01813974 C18.9688185,0.842148472 18.998621,0.598087336 18.9037742,0.391755459 Z M10.9630766,8.95071616 C10.8784194,9.05604367 10.8319919,9.18833188 10.8318387,9.32494323 L10.8244839,15.0710306 L8.12671371,16.4428821 L8.12671371,9.32572926 C8.12671371,9.1888821 8.0803629,9.05627948 7.99547581,8.95071616 L1.79304839,1.23264629 L17.165504,1.23264629 L10.9630766,8.95071616 Z" id="Shape"></path>
                </g>
            </g>
        </g>
    </g>
</svg>