<?xml version="1.0" encoding="UTF-8"?>
<svg width="29px" height="25px" viewBox="0 0 29 25" version="1.1" xmlns="http://www.w3.org/2000/svg" xmlns:xlink="http://www.w3.org/1999/xlink">
    <!-- Generator: Sketch 49.3 (51167) - http://www.bohemiancoding.com/sketch -->
    <title>heart</title>
    <desc>Created with Sketch.</desc>
    <defs>
        <linearGradient x1="100%" y1="50%" x2="0%" y2="50%" id="linearGradient-1">
            <stop stop-color="#B61CBC" offset="0%"></stop>
            <stop stop-color="#7F0C87" offset="100%"></stop>
        </linearGradient>
    </defs>
    <g id="Symbols" stroke="none" stroke-width="1" fill="none" fill-rule="evenodd">
        <g id="Header-Copy" transform="translate(-1171.000000, -88.000000)" fill="url(#linearGradient-1)" fill-rule="nonzero">
            <g id="heart" transform="translate(1171.000000, 88.000000)">
                <path d="M21.1835938,0 C17.8863164,0 15.6621523,1.63888889 14.5,2.80022222 C13.3378477,1.63888889 11.1136836,0 7.81640625,0 C3.23100781,0 0,3.99205556 0,8.70372222 C0,15.99 7.39143164,21.5562222 13.9823613,24.8772222 C14.307252,25.0409444 14.692748,25.0409444 15.0176387,24.8772222 C21.6119668,21.5545556 29,15.9937778 29,8.70372222 C29,4.00038889 25.7762988,0 21.1835938,0 Z M14.5,22.6360556 C8.94157227,19.7553333 2.265625,14.8323333 2.265625,8.70372222 C2.265625,5.329 4.41995117,2.22222222 7.81640625,2.22222222 C10.4959043,2.22222222 12.6177188,3.77122222 13.5495703,5.13233333 C13.7563086,5.45177778 14.1116152,5.64161111 14.4975078,5.64344444 C14.8855527,5.64477778 15.242502,5.44877778 15.4521289,5.12983333 C15.4712168,5.10072222 17.4069102,2.22222222 21.1835938,2.22222222 C24.5807852,2.22222222 26.734375,5.33027778 26.734375,8.70372222 C26.734375,14.8285 20.0467031,19.7613889 14.5,22.6360556 Z" id="Shape"></path>
            </g>
        </g>
    </g>
</svg>