<?xml version="1.0" encoding="UTF-8"?>
<svg width="45px" height="45px" viewBox="0 0 45 45" version="1.1" xmlns="http://www.w3.org/2000/svg" xmlns:xlink="http://www.w3.org/1999/xlink">
    <!-- Generator: Sketch 50.2 (55047) - http://www.bohemiancoding.com/sketch -->
    <title>Group 6</title>
    <desc>Created with Sketch.</desc>
    <defs></defs>
    <g id="Page-1" stroke="none" stroke-width="1" fill="none" fill-rule="evenodd">
        <g id="Artboard" transform="translate(-835.000000, -148.000000)">
            <g id="Social-btn-/-Inst-normal" transform="translate(835.000000, 148.000000)">
                <g id="Group-6">
                    <circle id="Oval-3-Copy" fill="#D9D9D9" cx="22.5" cy="22.5" r="22.5"></circle>
                    <g id="instagram" transform="translate(10.800000, 10.800000)" fill="#FFFFFF" fill-rule="nonzero">
                        <path d="M16.70625,0 L7.59375,0 C3.40048125,0 0,3.40048125 0,7.59375 L0,16.70625 C0,20.8995187 3.40048125,24.3 7.59375,24.3 L16.70625,24.3 C20.8995187,24.3 24.3,20.8995187 24.3,16.70625 L24.3,7.59375 C24.3,3.40048125 20.8995187,0 16.70625,0 Z M22.021875,16.70625 C22.021875,19.6374375 19.6374375,22.021875 16.70625,22.021875 L7.59375,22.021875 C4.6625625,22.021875 2.278125,19.6374375 2.278125,16.70625 L2.278125,7.59375 C2.278125,4.6625625 4.6625625,2.278125 7.59375,2.278125 L16.70625,2.278125 C19.6374375,2.278125 22.021875,4.6625625 22.021875,7.59375 L22.021875,16.70625 Z" id="Shape"></path>
                        <path d="M12.15,6.075 C8.79508125,6.075 6.075,8.79508125 6.075,12.15 C6.075,15.5049188 8.79508125,18.225 12.15,18.225 C15.5049188,18.225 18.225,15.5049188 18.225,12.15 C18.225,8.79508125 15.5049188,6.075 12.15,6.075 Z M12.15,15.946875 C10.0571625,15.946875 8.353125,14.2428375 8.353125,12.15 C8.353125,10.0556438 10.0571625,8.353125 12.15,8.353125 C14.2428375,8.353125 15.946875,10.0556438 15.946875,12.15 C15.946875,14.2428375 14.2428375,15.946875 12.15,15.946875 Z" id="Shape"></path>
                        <circle id="Oval" cx="18.680625" cy="5.619375" r="1"></circle>
                    </g>
                </g>
            </g>
        </g>
    </g>
</svg>