<?xml version="1.0" encoding="UTF-8"?>
<svg width="21px" height="27px" viewBox="0 0 21 27" version="1.1" xmlns="http://www.w3.org/2000/svg" xmlns:xlink="http://www.w3.org/1999/xlink">
    <!-- Generator: Sketch 49.3 (51167) - http://www.bohemiancoding.com/sketch -->
    <title>messenger-user-avatar</title>
    <desc>Created with Sketch.</desc>
    <defs>
        <linearGradient x1="100%" y1="50%" x2="0%" y2="50%" id="linearGradient-1">
            <stop stop-color="#B61CBC" offset="0%"></stop>
            <stop stop-color="#7F0C87" offset="100%"></stop>
        </linearGradient>
    </defs>
    <g id="Symbols" stroke="none" stroke-width="1" fill="none" fill-rule="evenodd">
        <g id="Header-Copy" transform="translate(-1115.000000, -87.000000)" fill="url(#linearGradient-1)" fill-rule="nonzero">
            <g id="messenger-user-avatar" transform="translate(1115.000000, 87.000000)">
                <path d="M0.0383703704,25.8825214 C0.0383703704,26.4835929 0.534203704,26.9753786 1.14022222,26.9753786 L19.8349537,26.9753786 C20.4409722,26.9753786 20.9368056,26.4835929 20.9368056,25.8825214 C20.9368056,19.8353571 18.1821759,14.6442857 14.3073519,12.5678571 C16.1805,11.3475214 17.4108796,9.23464286 17.4108796,6.84855 C17.4108796,3.07819286 14.3073519,0 10.505963,0 C6.70457407,0 3.58263889,3.06 3.58263889,6.84855 C3.58263889,9.23464286 4.81301852,11.3292643 6.68616667,12.5678571 C2.793,14.6442857 0.0383703704,19.8353571 0.0383703704,25.8825214 Z M10.4875556,2.18571429 C13.0769074,2.18571429 15.1887685,4.28033571 15.1887685,6.84855 C15.1887685,9.41676429 13.0769074,11.5113857 10.4875556,11.5113857 C7.8982037,11.5113857 5.78634259,9.41676429 5.78634259,6.84855 C5.78634259,4.28033571 7.8982037,2.18571429 10.4875556,2.18571429 Z M10.4875556,13.7518071 C14.7847778,13.7518071 18.3107037,18.6150214 18.6963519,24.7896643 L2.27875926,24.7896643 C2.66440741,18.6150214 6.19033333,13.7518071 10.4875556,13.7518071 Z" id="Shape"></path>
            </g>
        </g>
    </g>
</svg>