<?xml version="1.0" encoding="UTF-8"?>
<svg width="13px" height="17px" viewBox="0 0 13 17" version="1.1" xmlns="http://www.w3.org/2000/svg" xmlns:xlink="http://www.w3.org/1999/xlink">
    <!-- Generator: Sketch 49.3 (51167) - http://www.bohemiancoding.com/sketch -->
    <title>messenger-user-avatar</title>
    <desc>Created with Sketch.</desc>
    <defs></defs>
    <g id="Symbols" stroke="none" stroke-width="1" fill="none" fill-rule="evenodd" opacity="0.800000012">
        <g id="Header" transform="translate(-1159.000000, -12.000000)" fill="#FFFFFF" fill-rule="nonzero">
            <g id="messenger-user-avatar" transform="translate(1159.000000, 12.000000)">
                <path d="M0,16.3112767 C0,16.6900745 0.308436171,17 0.685413714,17 L12.3145863,17 C12.6915638,17 13,16.6900745 13,16.3112767 C13,12.5003277 11.2864657,9.22889206 8.87610759,7.92031781 C10.0413109,7.15125698 10.8066761,5.81971178 10.8066761,4.31598577 C10.8066761,1.93989042 8.87610759,0 6.51143028,0 C4.14675297,0 2.20473401,1.92842521 2.20473401,4.31598577 C2.20473401,5.81971178 2.97009921,7.13975125 4.13530253,7.92031781 C1.71353428,9.22889206 0,12.5003277 0,16.3112767 Z M6.49997984,1.37744658 C8.11070207,1.37744658 9.42439825,2.69748604 9.42439825,4.31598577 C9.42439825,5.9344855 8.11070207,7.25452496 6.49997984,7.25452496 C4.88925761,7.25452496 3.57556143,5.9344855 3.57556143,4.31598577 C3.57556143,2.69748604 4.88925761,1.37744658 6.49997984,1.37744658 Z M6.49997984,8.66644821 C9.17309332,8.66644821 11.3664172,11.7312668 11.606312,15.6225534 L1.39364767,15.6225534 C1.63354247,11.7312668 3.82686636,8.66644821 6.49997984,8.66644821 Z" id="Shape"></path>
            </g>
        </g>
    </g>
</svg>