<?xml version="1.0" encoding="UTF-8"?>
<svg width="9px" height="10px" viewBox="0 0 9 10" version="1.1" xmlns="http://www.w3.org/2000/svg" xmlns:xlink="http://www.w3.org/1999/xlink">
    <!-- Generator: Sketch 50.2 (55047) - http://www.bohemiancoding.com/sketch -->
    <title>+</title>
    <desc>Created with Sketch.</desc>
    <defs></defs>
    <g id="Symbols" stroke="none" stroke-width="1" fill="none" fill-rule="evenodd" opacity="0.800000012">
        <g id="Category-/-Cell-1" transform="translate(-11.000000, -20.000000)" fill="#FFFFFF">
            <path d="M11.8028455,24.1869919 L14.7139738,24.1869919 L14.7139738,20.7860262 C14.7139738,20.3519159 15.0658897,20 15.5,20 L15.5,20 C15.9341103,20 16.2860262,20.3519159 16.2860262,20.7860262 L16.2860262,24.1869919 L19.1971545,24.1869919 C19.6405538,24.1869919 20,24.5464381 20,24.9898374 L20,24.9898374 C20,25.4332367 19.6405538,25.7926829 19.1971545,25.7926829 L16.2860262,25.7926829 L16.2860262,29.2139738 C16.2860262,29.6480841 15.9341103,30 15.5,30 L15.5,30 C15.0658897,30 14.7139738,29.6480841 14.7139738,29.2139738 L14.7139738,25.7926829 L11.8028455,25.7926829 C11.3594462,25.7926829 11,25.4332367 11,24.9898374 L11,24.9898374 C11,24.5464381 11.3594462,24.1869919 11.8028455,24.1869919 Z" id="+"></path>
        </g>
    </g>
</svg>