<?xml version="1.0" encoding="UTF-8"?>
<svg width="47px" height="60px" viewBox="0 0 47 60" version="1.1" xmlns="http://www.w3.org/2000/svg" xmlns:xlink="http://www.w3.org/1999/xlink">
    <!-- Generator: Sketch 49.3 (51167) - http://www.bohemiancoding.com/sketch -->
    <title>like</title>
    <desc>Created with Sketch.</desc>
    <defs>
        <linearGradient x1="100%" y1="50%" x2="0%" y2="50%" id="linearGradient-1">
            <stop stop-color="#B61CBC" offset="0%"></stop>
            <stop stop-color="#7F0C87" offset="100%"></stop>
        </linearGradient>
    </defs>
    <g id="Page-1" stroke="none" stroke-width="1" fill="none" fill-rule="evenodd">
        <g id="Главная" transform="translate(-551.000000, -690.000000)" fill="url(#linearGradient-1)" fill-rule="nonzero">
            <g id="like" transform="translate(551.000000, 690.000000)">
                <path d="M46.470545,22.2760234 C47.38634,20.6497076 47.065095,18.6305263 45.68917,17.3654971 C45.112715,16.8354386 44.8498675,16.0304094 45.0033225,15.2644444 C45.3694525,13.4361404 44.4369725,11.6145029 42.7358075,10.8346199 C42.0230525,10.5079532 41.5232075,9.82304094 41.4313225,9.04736842 C41.2118325,7.19590643 39.7595325,5.75017544 37.8995075,5.53192982 C37.1202475,5.44046784 36.432285,4.94280702 36.10399,4.23333333 C35.3205,2.54 33.4902025,1.61204678 31.653795,1.97625731 C30.8840525,2.12900585 30.0754175,1.86725146 29.543025,1.29356725 C28.2722625,-0.0759064327 26.24339,-0.395555556 24.6097875,0.515789474 C23.9252325,0.897660819 23.074885,0.897777778 22.3904475,0.515789474 C20.75661,-0.395555556 18.7282075,-0.0759064327 17.45721,1.29356725 C16.9248175,1.86725146 16.116065,2.12935673 15.34644,1.97625731 C13.5095625,1.61216374 11.679735,2.54 10.8961275,4.23333333 C10.56795,4.94280702 9.87987,5.44035088 9.1007275,5.53181287 C7.2407025,5.75017544 5.788285,7.19578947 5.5689125,9.04736842 C5.4770275,9.82304094 4.977065,10.5078363 4.2644275,10.8345029 C2.5632625,11.614386 1.630665,13.4360234 1.9969125,15.2643275 C2.1503675,16.0304094 1.88752,16.8354386 1.311065,17.3653801 C-0.0647425,18.6302924 -0.386105,20.6497076 0.52969,22.2759064 C0.913445,22.9573099 0.913445,23.8036257 0.52969,24.4850292 C-0.386105,26.111345 -0.06486,28.1305263 1.311065,29.3955556 C1.88752,29.925614 2.1503675,30.7305263 1.9969125,31.4964912 C1.6307825,33.3247953 2.5632625,35.1464327 4.2644275,35.9263158 C4.9771825,36.2530994 5.4770275,36.9380117 5.5689125,37.7136842 C5.75139,39.2532164 6.7868,40.5115789 8.1999725,41.0176608 L1.987395,53.6864327 C1.8505075,53.9653801 1.8721275,54.2955556 2.0439125,54.5546199 C2.2156975,54.8136842 2.5115625,54.9650292 2.82376,54.9472515 L8.7851225,54.6471345 L12.2149475,59.5100585 C12.38074,59.7450292 12.65052,59.8831579 12.936045,59.8831579 C12.9591925,59.8831579 12.9824575,59.8822222 13.0057225,59.8804678 C13.3166275,59.8560234 13.5913425,59.6697076 13.7281125,59.3907602 L19.935285,46.7322807 C20.76084,46.831345 21.61953,46.6756725 22.39033,46.2454971 C23.0747675,45.8636257 23.9249975,45.8635088 24.60967,46.2454971 C25.23195,46.5926316 25.9112175,46.7612865 26.584375,46.7611696 C26.761095,46.7611696 26.93711,46.7483041 27.111715,46.7252632 L33.3224125,59.3907602 C33.4591825,59.6697076 33.7338975,59.8560234 34.0448025,59.8804678 C34.0680675,59.8823392 34.0913325,59.8831579 34.11448,59.8831579 C34.400005,59.8831579 34.669785,59.7450292 34.8355775,59.5100585 L38.2654025,54.6471345 L44.226765,54.9472515 C44.5372,54.9633918 44.8348275,54.8135673 45.0066125,54.5546199 C45.178515,54.2955556 45.2000175,53.9653801 45.06313,53.6864327 L38.84315,41.0019883 C40.2342325,40.4859649 41.2506075,39.2376608 41.431205,37.7135673 C41.52309,36.9378947 42.0230525,36.2530994 42.73569,35.9263158 C44.436855,35.1464327 45.3694525,33.3247953 45.003205,31.4964912 C44.84975,30.7304094 45.1125975,29.9254971 45.6890525,29.3954386 C47.06486,28.1305263 47.3862225,26.1111111 46.4704275,24.4849123 C46.08679,23.8038596 46.08679,22.9573099 46.470545,22.2760234 Z M12.799275,57.2852632 L9.9479025,53.2425731 C9.773885,52.9959064 9.48554,52.854386 9.182155,52.8705263 L4.22624,53.120117 L9.92687,41.4947368 C10.3464625,41.7252632 10.6912075,42.0852632 10.89601,42.5278363 C11.3146625,43.4328655 12.03247,44.1187135 12.89022,44.5061988 L11.0058725,48.3488889 C10.792375,48.7842105 10.9739125,49.3093567 11.4112475,49.5218713 C11.53568,49.5823392 11.6673975,49.6109942 11.7971175,49.6109942 C12.1232975,49.6109942 12.436905,49.4299415 12.5897725,49.1183626 L14.6772775,44.8611696 C14.899,44.854152 15.1226025,44.8293567 15.3463225,44.7850292 C16.116065,44.6320468 16.9247,44.8939181 17.4570925,45.4677193 C17.70114,45.7307602 17.9733875,45.9547368 18.2652575,46.1389474 L12.799275,57.2852632 Z M42.8241675,53.120117 L37.868135,52.8706433 C37.56522,52.8538012 37.276405,52.9959064 37.1023875,53.2426901 L34.251015,57.2853801 L28.7728125,46.1136842 C29.0501125,45.934152 29.309435,45.7190643 29.54279,45.4676023 C30.0751825,44.8938012 30.883935,44.6322807 31.65356,44.7849123 C31.8945525,44.8327485 32.1354275,44.8576608 32.373835,44.8622222 L34.46087,49.1183626 C34.61362,49.4298246 34.92711,49.6108772 35.2534075,49.6108772 C35.3831275,49.6108772 35.5149625,49.5822222 35.639395,49.5217544 C36.07673,49.3092398 36.2582675,48.7840936 36.04477,48.3487719 L34.15114,44.4870175 C34.99056,44.0963743 35.692035,43.4180117 36.1041075,42.5277193 C36.3153725,42.0711111 36.67598,41.7031579 37.1136675,41.4739181 L42.8241675,53.120117 Z M44.49349,28.1069006 C43.46936,29.0484211 43.00265,30.4787135 43.2751325,31.8395322 C43.4812275,32.8687719 42.956355,33.8940351 41.9988475,34.3329825 C40.7326675,34.9134503 39.8446025,36.1300585 39.6812775,37.5081871 C39.557785,38.5504094 38.74022,39.3640936 37.693295,39.4870175 C36.30891,39.6495906 35.0865575,40.5335673 34.503405,41.7939181 C34.0624275,42.7471345 33.032305,43.2698246 31.998305,43.0643275 C30.6314275,42.7933333 29.1941675,43.2577778 28.24841,44.277193 C27.53307,45.0481871 26.391205,45.2281871 25.4715325,44.7150877 C24.8633525,44.3757895 24.1818525,44.2060819 23.5001175,44.2060819 C22.8185,44.2060819 22.1366475,44.3757895 21.5287025,44.7149708 C20.60903,45.2280702 19.467165,45.0480702 18.751825,44.277193 C17.80595,43.2578947 16.368925,42.7932164 15.00193,43.0643275 C13.9680475,43.2695906 12.937925,42.7470175 12.4969475,41.7939181 C11.913795,40.5335673 10.69156,39.6495906 9.3070575,39.4870175 C8.260015,39.3640936 7.4425675,38.5502924 7.319075,37.5081871 C7.15575,36.1301754 6.267685,34.9134503 5.001505,34.3328655 C4.04388,33.8939181 3.519125,32.868655 3.72522,31.8394152 C3.9977025,30.4785965 3.530875,29.0483041 2.5068625,28.1067836 C1.73242,27.3947368 1.55147,26.2581287 2.0669425,25.3426901 C2.7486775,24.1322807 2.7486775,22.6284211 2.0669425,21.4178947 C1.5513525,20.5024561 1.7323025,19.3659649 2.506745,18.6538012 C3.530875,17.7122807 3.997585,16.2819883 3.72522,14.9211696 C3.519125,13.8920468 4.0439975,12.8666667 5.001505,12.4277193 C6.267685,11.8472515 7.15575,10.6306433 7.319075,9.25251462 C7.4425675,8.21017544 8.2601325,7.39660819 9.3070575,7.27368421 C10.6914425,7.11111111 11.9139125,6.2271345 12.4969475,4.96678363 C12.937925,4.01356725 13.9678125,3.49122807 15.0020475,3.69637427 C16.3697475,3.9677193 17.8060675,3.50280702 18.7519425,2.48350877 C19.4672825,1.71263158 20.609265,1.53239766 21.52882,2.04573099 C22.7448275,2.72421053 24.2556425,2.72421053 25.47165,2.04573099 C26.3913225,1.53239766 27.53307,1.71251462 28.2485275,2.48350877 C29.1944025,3.50280702 30.631075,3.96760234 31.9984225,3.69637427 C33.032775,3.49099415 34.06231,4.01380117 34.503405,4.96678363 C35.0865575,6.2271345 36.3087925,7.11111111 37.693295,7.27368421 C38.7403375,7.39660819 39.557785,8.21040936 39.6812775,9.25251462 C39.8446025,10.6305263 40.7326675,11.8473684 41.9988475,12.4277193 C42.9564725,12.8666667 43.4812275,13.8920468 43.2751325,14.9211696 C43.00265,16.2819883 43.4694775,17.7122807 44.4936075,18.6538012 C45.26805,19.365848 45.449,20.5024561 44.9335275,21.4178947 C44.2517925,22.628655 44.2517925,24.1325146 44.9335275,25.342807 C45.448765,26.2582456 45.267815,27.3948538 44.49349,28.1069006 Z" id="Shape"></path>
                <path d="M37.5671,19.6308772 C37.5671,18.1129825 36.32677,16.8783626 34.80209,16.8783626 L28.8016,16.8783626 C29.3079075,15.9359064 29.9659075,14.56 30.5066425,12.9219883 C30.919655,11.6715789 30.2257,10.3123977 28.960225,9.89251462 L28.90594,9.87450292 C27.746215,9.48935673 26.4704,10.0348538 25.9382425,11.142924 C25.1601575,12.7640936 23.4279725,15.6387135 20.49999,16.8784795 L19.9250625,16.8784795 C19.4179325,16.3043275 18.6755675,15.9409357 17.848955,15.9409357 L14.08167,15.9409357 C12.5571075,15.9409357 11.3167775,17.1755556 11.3167775,18.6930994 L11.3167775,31.8182456 C11.3167775,33.3357895 12.5571075,34.5704094 14.08167,34.5704094 L17.848955,34.5704094 C18.6755675,34.5704094 19.4179325,34.2070175 19.9250625,33.6328655 L31.976685,33.6328655 C33.5012475,33.6328655 34.7415775,32.3982456 34.7415775,30.8807018 C34.7415775,30.3698246 34.6010475,29.8909942 34.3564125,29.4807018 C35.1516525,28.9968421 35.68334,28.1244444 35.68334,27.1307602 C35.68334,26.619883 35.54281,26.1410526 35.298175,25.7307602 C36.093415,25.2469006 36.6251025,24.3745029 36.6251025,23.3808187 C36.6251025,22.8699415 36.4845725,22.3911111 36.2399375,21.9808187 C37.035295,21.4969591 37.5671,20.6244444 37.5671,19.6308772 Z M34.80209,20.6283041 L31.9765675,20.6283041 C31.4898825,20.6283041 31.0953175,21.0210526 31.0953175,21.5054971 C31.0953175,21.9899415 31.4898825,22.3826901 31.9765675,22.3826901 L33.86021,22.3826901 C34.4130475,22.3826901 34.86272,22.8304094 34.86272,23.3805848 C34.86272,23.9307602 34.41293,24.3784795 33.86021,24.3784795 L31.0346875,24.3784795 C30.5480025,24.3784795 30.1534375,24.7712281 30.1534375,25.2556725 C30.1534375,25.740117 30.5480025,26.1328655 31.0346875,26.1328655 L32.91833,26.1328655 C33.4711675,26.1328655 33.92084,26.5805848 33.92084,27.1307602 C33.92084,27.6809357 33.47105,28.128655 32.91833,28.128655 L30.092925,28.128655 C29.60624,28.128655 29.211675,28.5214035 29.211675,29.005848 C29.211675,29.4902924 29.60624,29.8830409 30.092925,29.8830409 L31.9765675,29.8830409 C32.529405,29.8830409 32.9790775,30.3307602 32.9790775,30.8809357 C32.9790775,31.4311111 32.5292875,31.8788304 31.9765675,31.8788304 L20.6138475,31.8788304 L20.6138475,23.3809357 C20.6138475,22.8964912 20.2192825,22.5037427 19.7325975,22.5037427 C19.2459125,22.5037427 18.8513475,22.8964912 18.8513475,23.3809357 L18.8513475,31.8184795 C18.8513475,32.3687719 18.4015575,32.8163743 17.8488375,32.8163743 L14.0815525,32.8163743 C13.528715,32.8163743 13.0790425,32.368655 13.0790425,31.8184795 L13.0790425,18.6929825 C13.0790425,18.1426901 13.5288325,17.6950877 14.0815525,17.6950877 L17.8488375,17.6950877 C18.401675,17.6950877 18.8513475,18.142807 18.8513475,18.6929825 L18.8513475,19.6304094 C18.8513475,20.1148538 19.2459125,20.5076023 19.7325975,20.5076023 C20.2192825,20.5076023 20.6138475,20.1148538 20.6138475,19.6304094 L20.6138475,18.6326316 L20.6744775,18.6326316 C20.7865725,18.6326316 20.89761,18.611345 21.0018325,18.5698246 C24.578415,17.145731 26.6263225,13.7790643 27.5284875,11.8990643 C27.67783,11.5878363 28.0306825,11.4333333 28.348285,11.5384795 L28.4026875,11.5566082 C28.7504875,11.6719298 28.943305,12.0387135 28.8325025,12.374269 C27.8950875,15.2133333 26.54748,17.2493567 26.53432,17.2690058 C26.3539575,17.5381287 26.3372725,17.8842105 26.4904925,18.1694737 C26.64383,18.4546199 26.942515,18.6327485 27.26752,18.6327485 L34.802325,18.6327485 C35.3551625,18.6327485 35.804835,19.0804678 35.804835,19.6306433 C35.804835,20.1808187 35.3549275,20.6283041 34.80209,20.6283041 Z" id="Shape"></path>
                <ellipse id="Oval" cx="15.98" cy="29.9435088" rx="1" ry="1"></ellipse>
            </g>
        </g>
    </g>
</svg>