<?xml version="1.0" encoding="UTF-8"?>
<svg width="25px" height="27px" viewBox="0 0 25 27" version="1.1" xmlns="http://www.w3.org/2000/svg" xmlns:xlink="http://www.w3.org/1999/xlink">
    <!-- Generator: Sketch 50.2 (55047) - http://www.bohemiancoding.com/sketch -->
    <title>trash</title>
    <desc>Created with Sketch.</desc>
    <defs></defs>
    <g id="Page-1" stroke="none" stroke-width="1" fill="none" fill-rule="evenodd" opacity="0.200000003">
        <g id="Корзина" transform="translate(-941.000000, -460.000000)" fill="#000000" fill-rule="nonzero">
            <g id="trash" transform="translate(941.000000, 460.000000)">
                <path d="M24.027759,3.85608577 L17.3010698,3.85608577 L17.3010698,2.89205021 C17.3010698,1.29481381 16.0103604,0 14.4181869,0 L10.5743243,0 C8.9821509,0 7.69144144,1.29481381 7.69144144,2.89205021 L7.69144144,3.85608577 L0.964695946,3.85608577 C0.433952703,3.85608577 0.00371621622,4.28769038 0.00371621622,4.82012134 C0.00371621622,5.3525523 0.434009009,5.78410042 0.964695946,5.78410042 L2.00923423,5.78410042 L3.84757883,26.1161736 C3.89290541,26.6140356 4.31019144,26.9945209 4.80855856,26.9924874 L20.1839527,26.9924874 C20.6823198,26.9945774 21.0995495,26.6140921 21.1449324,26.1161736 L22.9832207,5.78410042 L24.0278153,5.78410042 C24.5585586,5.78410042 24.988795,5.35249582 24.988795,4.82006485 C24.988795,4.28763389 24.5585023,3.85608577 24.027759,3.85608577 Z M9.61334459,2.89205021 C9.61334459,2.35961925 10.0435811,1.92801464 10.5743243,1.92801464 L14.4181869,1.92801464 C14.9489302,1.92801464 15.3791667,2.35961925 15.3791667,2.89205021 L15.3791667,3.85608577 L9.61334459,3.85608577 L9.6134009,2.89205021 L9.61334459,2.89205021 Z M19.3065878,25.0644163 L5.68592342,25.0644163 L3.94369369,5.78410042 L8.65242117,5.78410042 L21.0536036,5.78410042 L19.3065878,25.0644163 Z" id="Shape"></path>
                <path d="M9.61362613,22.1079163 C9.61351351,22.1066172 9.61345721,22.1052615 9.61334459,22.1039623 L8.65236486,8.60774686 C8.61469595,8.0753159 8.15388514,7.67438285 7.6231982,7.71217155 C7.09245495,7.74996025 6.69279279,8.2122364 6.73046171,8.74461088 L7.69144144,22.2408264 C7.72730856,22.7463138 8.14724099,23.1377008 8.65242117,23.1364017 L8.72162162,23.1364017 C9.25106982,23.0995167 9.65045045,22.6390481 9.61362613,22.1079163 Z" id="Shape"></path>
                <path d="M12.4962275,7.71211506 C11.9654842,7.71211506 11.5352477,8.14371967 11.5352477,8.67615063 L11.5352477,22.1723661 C11.5352477,22.7047971 11.9654842,23.1364017 12.4962275,23.1364017 C13.0269707,23.1364017 13.4572072,22.7047971 13.4572072,22.1723661 L13.4572072,8.67615063 C13.4572072,8.14371967 13.0269707,7.71211506 12.4962275,7.71211506 Z" id="Shape"></path>
                <path d="M17.3692568,7.71211506 C16.8385135,7.67432636 16.377759,8.07525941 16.3400901,8.60769038 L15.3791104,22.1039059 C15.3402027,22.6348682 15.7377252,23.0969749 16.2670045,23.1360063 C16.2686374,23.1361192 16.270214,23.1362322 16.2718468,23.1363452 L16.3400901,23.1363452 C16.8452703,23.1376444 17.2652027,22.7462573 17.3010698,22.2407699 L18.2620495,8.74455439 C18.2997185,8.21217992 17.9,7.74996025 17.3692568,7.71211506 Z" id="Shape"></path>
            </g>
        </g>
    </g>
</svg>