<?xml version="1.0" encoding="UTF-8"?>
<svg width="45px" height="45px" viewBox="0 0 45 45" version="1.1" xmlns="http://www.w3.org/2000/svg" xmlns:xlink="http://www.w3.org/1999/xlink">
    <!-- Generator: Sketch 50.2 (55047) - http://www.bohemiancoding.com/sketch -->
    <title>Group 4</title>
    <desc>Created with Sketch.</desc>
    <defs></defs>
    <g id="Page-1" stroke="none" stroke-width="1" fill="none" fill-rule="evenodd">
        <g id="Artboard" transform="translate(-780.000000, -148.000000)">
            <g id="Social-btn-/-Vk-normal" transform="translate(780.000000, 148.000000)">
                <g id="Group-4">
                    <circle id="Oval-3" fill="#D9D9D9" cx="22.5" cy="22.5" r="22.5"></circle>
                    <g id="vk" transform="translate(9.800000, 17.200000)" fill="#FFFFFF" fill-rule="nonzero">
                        <path d="M23.1897199,12.0063214 C23.1268324,11.9005255 22.7378074,11.0512194 20.8658074,9.30558673 C18.9060574,7.47766837 19.1693074,7.77448469 21.5297824,4.61383163 C22.9674199,2.68893367 23.5421824,1.51342347 23.3622949,1.01089286 C23.1911824,0.531872449 22.1337949,0.658239796 22.1337949,0.658239796 L18.6179449,0.678811224 C18.6179449,0.678811224 18.3576199,0.643545918 18.1631074,0.759627551 C17.9744449,0.874239796 17.8530574,1.13872959 17.8530574,1.13872959 C17.8530574,1.13872959 17.2958449,2.62868878 16.5528949,3.89530102 C14.9865574,6.56811735 14.3591449,6.70917857 14.1032074,6.54313776 C13.5079699,6.15668878 13.6571449,4.98852551 13.6571449,4.15979082 C13.6571449,1.5692602 14.0476324,0.489260204 12.8951824,0.210076531 C12.5120074,0.117505102 12.2312074,0.0557908163 11.2527949,0.045505102 C9.99796992,0.0322806122 8.93473242,0.0499132653 8.33364492,0.345260204 C7.93291992,0.542158163 7.62433242,0.981505102 7.81299492,1.00648469 C8.04553242,1.03734184 8.57203242,1.14901531 8.85136992,1.53105612 C9.21260742,2.02330102 9.19944492,3.13121939 9.19944492,3.13121939 C9.19944492,3.13121939 9.40711992,6.18019898 8.71535742,6.55930102 C8.24004492,6.81938265 7.58923242,6.28893367 6.19254492,3.86297449 C5.47738242,2.62134184 4.93625742,1.24746429 4.93625742,1.24746429 C4.93625742,1.24746429 4.83241992,0.991790816 4.64668242,0.855137755 C4.42145742,0.689096939 4.10555742,0.63619898 4.10555742,0.63619898 L0.762282422,0.656770408 C0.762282422,0.656770408 0.260644922,0.671464286 0.0763699219,0.890403061 C-0.0874300781,1.08583163 0.0632074219,1.48844388 0.0632074219,1.48844388 C0.0632074219,1.48844388 2.68108242,7.64077041 5.64410742,10.742648 C8.36289492,13.5859133 11.4487699,13.399301 11.4487699,13.399301 L12.8469199,13.399301 C12.8469199,13.399301 13.2695824,13.3522806 13.4845699,13.118648 C13.6834699,12.9041173 13.6761574,12.5015051 13.6761574,12.5015051 C13.6761574,12.5015051 13.6483699,10.6162806 14.5200199,10.3385663 C15.3785074,10.0652602 16.4812324,12.1606071 17.6497699,12.967301 C18.5331199,13.5770969 19.2044074,13.4433827 19.2044074,13.4433827 L22.3297699,13.399301 C22.3297699,13.399301 23.9648449,13.2979133 23.1897199,12.0063214 Z" id="Shape"></path>
                    </g>
                </g>
            </g>
        </g>
    </g>
</svg>